# xmcd
#
# Track frame offsets: 
#        150
#        22080
#        49613
#        74542
#        99228
#        130167
#        154244
#        171664
#        191159
#        230987
#
# Disc length: 3188 seconds
#
# Revision: 2
# Processed by: cddbd v1.5.2PL0 Copyright (c) Steve Scherf et al.
# Submitted via: ExactAudioCopyFreeDBPlugin 1.0
#
DISCID=930c720a
DTITLE=Zig Zag Trio - Kogato pchelite sybirat med
DYEAR=2000
DGENRE=Ethnic
TTITLE0=Зиг Заг
TTITLE1=Обърни се
TTITLE2=Шемет
TTITLE3=Мъглата се вдига
TTITLE4=Плетеница
TTITLE5=Лека-полека
TTITLE6=И-ху!
TTITLE7=Опако
TTITLE8=Капчук
TTITLE9=Зиг Заг (откъс)
EXTD=YEAR: 2000
EXTT0=
EXTT1=
EXTT2=
EXTT3=
EXTT4=
EXTT5=
EXTT6=
EXTT7=
EXTT8=
EXTT9=
PLAYORDER=
